<svg xmlns="http://www.w3.org/2000/svg" viewBox="0 0 50 50"><path d="M25 2C12.309 2 2 12.309 2 25s10.309 23 23 23 23-10.309 23-23S37.691 2 25 2zm0 2c11.61 0 21 9.39 21 21s-9.39 21-21 21S4 36.61 4 25 13.39 4 25 4zm-1.379 6.5C15.773 12.367 6.656 21.906 7.543 29.125c4.27-7.531 7.16-8.555 7.945-8.555.79 0 1.215.426 1.215 1.336V33.13c0 1.394-1.348 1.226-2.242 1.09C17.773 39.16 25.5 39.5 25.5 39.5l3.46-3.762 3.337 2.852c5.082-3.29 8.437-8.863 8.437-9.707-2.515 2.773-4.675 3.277-5.16 3.277-.484 0-1.273-.058-1.273-.726V18.12c0-1.156 3.18-4.95 4.183-6.226-6.613 1.734-9.16 5.039-9.16 5.039s-.89-.668-2.851-.668c.734.625 1.761 1.757 1.761 3.093v12.192s-2.187 1.578-3.46 1.578c-1.274 0-2.184-.543-2.184-1.516V17.051s-1.82 1.277-1.82-2.488c0-1.88 2.851-4.063 2.851-4.063z"/></svg>